HIERARCHY
ROOT hip
{
  OFFSET 0 90.174 2.4664
  CHANNELS 6 Xposition Yposition Zposition Zrotation Xrotation Yrotation
  JOINT abdomen
  {
    OFFSET 0 -1.186 -1.5018
    CHANNELS 6 Xposition Yposition Zposition Zrotation Xrotation Yrotation
    JOINT abdomen2
    {
      OFFSET 0 9.964 0.2134
      CHANNELS 6 Xposition Yposition Zposition Zrotation Xrotation Yrotation
      JOINT chest
      {
        OFFSET 0 13.134 -3.2573
        CHANNELS 6 Xposition Yposition Zposition Zrotation Xrotation Yrotation
        JOINT neck
        {
          OFFSET 0 20.686 -1.6905
          CHANNELS 6 Xposition Yposition Zposition Zrotation Xrotation Yrotation
          JOINT head
          {
            OFFSET 0 7.238 -0.1237
            CHANNELS 6 Xposition Yposition Zposition Zrotation Xrotation Yrotation
            End Site
            {
              OFFSET 0 0 0
            }
          }
        }
        JOINT lCollar
        {
          OFFSET 1.7069 20.075 5.0056
          CHANNELS 6 Xposition Yposition Zposition Zrotation Xrotation Yrotation
          JOINT lShldr
          {
            OFFSET 13.6458 -0.047 -4.849
            CHANNELS 6 Xposition Yposition Zposition Zrotation Xrotation Yrotation
            JOINT lForeArm
            {
              OFFSET 28.3255 -0.9759 2.2888
              CHANNELS 6 Xposition Yposition Zposition Zrotation Xrotation Yrotation
              JOINT lHand
              {
                OFFSET 22.1583 -0.53 10.8316
                CHANNELS 6 Xposition Yposition Zposition Zrotation Xrotation Yrotation
                JOINT lThumb1
                {
                  OFFSET 0.786 0.112 2.5817
                  CHANNELS 6 Xposition Yposition Zposition Zrotation Xrotation Yrotation
                  JOINT lThumb2
                  {
                    OFFSET 0.3601 -0.878 4.2331
                    CHANNELS 6 Xposition Yposition Zposition Zrotation Xrotation Yrotation
                    JOINT lThumb2_End
                    {
                      OFFSET 1.8127 -1.216 2.2227
                      CHANNELS 6 Xposition Yposition Zposition Zrotation Xrotation Yrotation
                      End Site
                      {
                        OFFSET 0.0181 -0.0122 0.0222
                      }
                    }
                  }
                }
                JOINT lCarpal1
                {
                  OFFSET 0.9571 1.114 1.7695
                  CHANNELS 6 Xposition Yposition Zposition Zrotation Xrotation Yrotation
                  JOINT lIndex1
                  {
                    OFFSET 4.1246 0.487 4.1451
                    CHANNELS 6 Xposition Yposition Zposition Zrotation Xrotation Yrotation
                    JOINT lIndex2
                    {
                      OFFSET 3.4052 -1.454 2.7682
                      CHANNELS 6 Xposition Yposition Zposition Zrotation Xrotation Yrotation
                      JOINT lIndex2_End
                      {
                        OFFSET 1.4531 -1.795 1.2713
                        CHANNELS 6 Xposition Yposition Zposition Zrotation Xrotation Yrotation
                        End Site
                        {
                          OFFSET 0.0145 -0.0179 0.0127
                        }
                      }
                    }
                  }
                  JOINT lMid1
                  {
                    OFFSET 5.6954 0.21 2.1184
                    CHANNELS 6 Xposition Yposition Zposition Zrotation Xrotation Yrotation
                    JOINT lMid2
                    {
                      OFFSET 3.9766 -1.54 2.3863
                      CHANNELS 6 Xposition Yposition Zposition Zrotation Xrotation Yrotation
                      JOINT lMid2_End
                      {
                        OFFSET 1.4042 -1.926 1.125
                        CHANNELS 6 Xposition Yposition Zposition Zrotation Xrotation Yrotation
                        End Site
                        {
                          OFFSET 0.014 -0.0193 0.0113
                        }
                      }
                    }
                  }
                }
                JOINT lCarpal2
                {
                  OFFSET 2.0956 0.66 -0.3894
                  CHANNELS 6 Xposition Yposition Zposition Zrotation Xrotation Yrotation
                  JOINT lRing1
                  {
                    OFFSET 5.0395 -0.09 2.4971
                    CHANNELS 6 Xposition Yposition Zposition Zrotation Xrotation Yrotation
                    JOINT lRing2
                    {
                      OFFSET 3.7921 -1.552 1.4806
                      CHANNELS 6 Xposition Yposition Zposition Zrotation Xrotation Yrotation
                      JOINT lRing2_End
                      {
                        OFFSET 1.4655 -1.808 0.9609
                        CHANNELS 6 Xposition Yposition Zposition Zrotation Xrotation Yrotation
                        End Site
                        {
                          OFFSET 0.0147 -0.0181 0.0096
                        }
                      }
                    }
                  }
                  JOINT lPinky1
                  {
                    OFFSET 4.9141 -1.269 0.3591
                    CHANNELS 6 Xposition Yposition Zposition Zrotation Xrotation Yrotation
                    JOINT lPinky2
                    {
                      OFFSET 3.1477 -1.685 0.8462
                      CHANNELS 6 Xposition Yposition Zposition Zrotation Xrotation Yrotation
                      JOINT lPinky2_End
                      {
                        OFFSET 0.8055 -1.585 0.7955
                        CHANNELS 6 Xposition Yposition Zposition Zrotation Xrotation Yrotation
                        End Site
                        {
                          OFFSET 0.0081 -0.0158 0.008
                        }
                      }
                    }
                  }
                }
              }
            }
          }
        }
        JOINT rCollar
        {
          OFFSET -1.7069 20.075 5.0056
          CHANNELS 6 Xposition Yposition Zposition Zrotation Xrotation Yrotation
          JOINT rShldr
          {
            OFFSET -13.6458 -0.047 -4.849
            CHANNELS 6 Xposition Yposition Zposition Zrotation Xrotation Yrotation
            JOINT rForeArm
            {
              OFFSET -28.3255 -0.9759 2.2888
              CHANNELS 6 Xposition Yposition Zposition Zrotation Xrotation Yrotation
              JOINT rHand
              {
                OFFSET -22.1583 -0.53 10.8316
                CHANNELS 6 Xposition Yposition Zposition Zrotation Xrotation Yrotation
                JOINT rThumb1
                {
                  OFFSET -0.786 0.112 2.5817
                  CHANNELS 6 Xposition Yposition Zposition Zrotation Xrotation Yrotation
                  JOINT rThumb2
                  {
                    OFFSET -0.3601 -0.878 4.2331
                    CHANNELS 6 Xposition Yposition Zposition Zrotation Xrotation Yrotation
                    JOINT rThumb2_End
                    {
                      OFFSET -1.8127 -1.216 2.2227
                      CHANNELS 6 Xposition Yposition Zposition Zrotation Xrotation Yrotation
                      End Site
                      {
                        OFFSET -0.0181 -0.0122 0.0222
                      }
                    }
                  }
                }
                JOINT rCarpal1
                {
                  OFFSET -0.9571 1.114 1.7695
                  CHANNELS 6 Xposition Yposition Zposition Zrotation Xrotation Yrotation
                  JOINT rIndex1
                  {
                    OFFSET -4.1246 0.487 4.1451
                    CHANNELS 6 Xposition Yposition Zposition Zrotation Xrotation Yrotation
                    JOINT rIndex2
                    {
                      OFFSET -3.4052 -1.454 2.7682
                      CHANNELS 6 Xposition Yposition Zposition Zrotation Xrotation Yrotation
                      JOINT rIndex2_End
                      {
                        OFFSET -1.4531 -1.795 1.2713
                        CHANNELS 6 Xposition Yposition Zposition Zrotation Xrotation Yrotation
                        End Site
                        {
                          OFFSET -0.0145 -0.018 0.0127
                        }
                      }
                    }
                  }
                  JOINT rMid1
                  {
                    OFFSET -5.6954 0.21 2.1184
                    CHANNELS 6 Xposition Yposition Zposition Zrotation Xrotation Yrotation
                    JOINT rMid2
                    {
                      OFFSET -3.9766 -1.54 2.3863
                      CHANNELS 6 Xposition Yposition Zposition Zrotation Xrotation Yrotation
                      JOINT rMid2_End
                      {
                        OFFSET -1.4042 -1.926 1.125
                        CHANNELS 6 Xposition Yposition Zposition Zrotation Xrotation Yrotation
                        End Site
                        {
                          OFFSET -0.014 -0.0193 0.0113
                        }
                      }
                    }
                  }
                }
                JOINT rCarpal2
                {
                  OFFSET -2.0956 0.66 -0.3894
                  CHANNELS 6 Xposition Yposition Zposition Zrotation Xrotation Yrotation
                  JOINT rRing1
                  {
                    OFFSET -5.0395 -0.09 2.4971
                    CHANNELS 6 Xposition Yposition Zposition Zrotation Xrotation Yrotation
                    JOINT rRing2
                    {
                      OFFSET -3.7921 -1.552 1.4806
                      CHANNELS 6 Xposition Yposition Zposition Zrotation Xrotation Yrotation
                      JOINT rRing2_End
                      {
                        OFFSET -1.4655 -1.808 0.9609
                        CHANNELS 6 Xposition Yposition Zposition Zrotation Xrotation Yrotation
                        End Site
                        {
                          OFFSET -0.0147 -0.0181 0.0096
                        }
                      }
                    }
                  }
                  JOINT rPinky1
                  {
                    OFFSET -4.9141 -1.269 0.3592
                    CHANNELS 6 Xposition Yposition Zposition Zrotation Xrotation Yrotation
                    JOINT rPinky2
                    {
                      OFFSET -3.1477 -1.685 0.8462
                      CHANNELS 6 Xposition Yposition Zposition Zrotation Xrotation Yrotation
                      JOINT rPinky2_End
                      {
                        OFFSET -0.8055 -1.585 0.7955
                        CHANNELS 6 Xposition Yposition Zposition Zrotation Xrotation Yrotation
                        End Site
                        {
                          OFFSET -0.0081 -0.0158 0.008
                        }
                      }
                    }
                  }
                }
              }
            }
          }
        }
      }
    }
  }
  JOINT lThigh
  {
    OFFSET 8.367 -8.2066 0.5982
    CHANNELS 6 Xposition Yposition Zposition Zrotation Xrotation Yrotation
    JOINT lShin
    {
      OFFSET 2.1923 -43.463 -0.4932
      CHANNELS 6 Xposition Yposition Zposition Zrotation Xrotation Yrotation
      JOINT lFoot
      {
        OFFSET 0.7333 -45.8593 -2.6451
        CHANNELS 6 Xposition Yposition Zposition Zrotation Xrotation Yrotation
        End Site
        {
          OFFSET 2.6618 -4.2699 12.3931
        }
      }
    }
  }
  JOINT rThigh
  {
    OFFSET -8.367 -8.2066 0.5982
    CHANNELS 6 Xposition Yposition Zposition Zrotation Xrotation Yrotation
    JOINT rShin
    {
      OFFSET -2.1923 -43.463 -0.4931
      CHANNELS 6 Xposition Yposition Zposition Zrotation Xrotation Yrotation
      JOINT rFoot
      {
        OFFSET -0.7333 -45.8593 -2.6451
        CHANNELS 6 Xposition Yposition Zposition Zrotation Xrotation Yrotation
        End Site
        {
          OFFSET -2.6618 -4.2699 12.3931
        }
      }
    }
  }
}
MOTION
Frames:	4
Frame Time:	0.0333333
0 90.174 2.4664 0 0 -0 0 -1.186 -1.5018 0 0 -0 0 9.964 0.2134 0 0 -0 0 13.134 -3.2573 0 0 -0 0 20.686 -1.6905 0 0 -0 0 7.238 -0.1237 0 0 -0 1.7069 20.075 5.0056 0 0 -0 13.6458 -0.047 -4.849 1.66051 0.0835086 5.75766 28.3255 -0.9759 2.2888 -0.0175111 0.895433 15.7816 22.1583 -0.53 10.8316 7.95139e-016 -1.98785e-016 -0 0.786 0.112 2.5817 5.46658e-016 -3.97569e-016 -0 0.3601 -0.878 4.2331 5.96354e-016 0 -0 1.8127 -1.216 2.2227 3.97569e-016 1.98785e-016 9.54166e-015 0.9571 1.114 1.7695 1.49089e-016 -3.97569e-016 -0 4.1246 0.487 4.1451 6.4605e-016 0 3.18055e-015 3.4052 -1.454 2.7682 5.96354e-016 0 3.18055e-015 1.4531 -1.795 1.2713 8.94531e-016 -1.98785e-016 6.36111e-015 5.6954 0.21 2.1184 6.4605e-016 0 3.18055e-015 3.9766 -1.54 2.3863 5.96354e-016 0 3.18055e-015 1.4042 -1.926 1.125 8.94531e-016 -1.98785e-016 6.36111e-015 2.0956 0.66 -0.3894 1.49089e-016 -3.97569e-016 -0 5.0395 -0.09 2.4971 6.4605e-016 0 3.18055e-015 3.7921 -1.552 1.4806 5.96354e-016 0 3.18055e-015 1.4655 -1.808 0.9609 8.94531e-016 -1.98785e-016 6.36111e-015 4.9141 -1.269 0.3591 6.4605e-016 0 3.18055e-015 3.1477 -1.685 0.8462 5.96354e-016 0 3.18055e-015 0.8055 -1.585 0.7955 8.94531e-016 -1.98785e-016 6.36111e-015 -1.7069 20.075 5.0056 0 0 -0 -13.6458 -0.047 -4.849 -1.4496 0.0636048 -5.0245 -28.3255 -0.9759 2.2888 -1.74811 1.20616 -16.8394 -22.1583 -0.53 10.8316 -1.19271e-015 1.98785e-016 -3.18055e-015 -0.786 0.112 2.5817 -3.97569e-016 1.98785e-016 -3.18055e-015 -0.3601 -0.878 4.2331 -2.98177e-016 1.98785e-016 -3.18055e-015 -1.8127 -1.216 2.2227 -2.98177e-016 3.97569e-016 -0 -0.9571 1.114 1.7695 4.96962e-016 0 -6.36111e-015 -4.1246 0.487 4.1451 -9.93923e-017 3.97569e-016 -0 -3.4052 -1.454 2.7682 -8.94531e-016 5.96354e-016 -0 -1.4531 -1.795 1.2713 -3.97569e-016 3.97569e-016 -0 -5.6954 0.21 2.1184 -9.93923e-017 3.97569e-016 -0 -3.9766 -1.54 2.3863 -8.94531e-016 5.96354e-016 -0 -1.4042 -1.926 1.125 -3.97569e-016 3.97569e-016 -0 -2.0956 0.66 -0.3894 4.96962e-016 0 -6.36111e-015 -5.0395 -0.09 2.4971 -9.93923e-017 3.97569e-016 -0 -3.7921 -1.552 1.4806 -8.94531e-016 5.96354e-016 -0 -1.4655 -1.808 0.9609 -3.97569e-016 3.97569e-016 -0 -4.9141 -1.269 0.3592 -9.93923e-017 3.97569e-016 -0 -3.1477 -1.685 0.8462 -8.94531e-016 5.96354e-016 -0 -0.8055 -1.585 0.7955 -3.97569e-016 3.97569e-016 -0 8.367 -8.2066 0.5982 -4.66115 -1.03232 0.120763 2.1923 -43.463 -0.4932 0.00990601 1.55097 0.177175 0.7333 -45.8593 -2.6451 4.65196 -0.54114 -0.255042 -8.367 -8.2066 0.5982 4.66115 -1.03222 -0.120763 -2.1923 -43.463 -0.4931 -0.00990459 1.5509 -0.177176 -0.7333 -45.8593 -2.6451 -4.65196 -0.541171 0.255041 
7.83855 17.54 47.4822 -59.2287 -38.8878 110.357 0 -1.186 -1.5018 0.270759 -2.96841 -0.0886894 0 9.964 0.2134 0.53797 -5.93704 -0.163624 7.10543e-015 13.134 -3.2573 0.537975 -5.93706 -0.163626 0 20.686 -1.6905 0.00034037 7.36619 -6.53887e-005 0 7.238 -0.1237 6.00063e-006 -41.3307 5.46547e-006 1.7069 20.075 5.0056 19.0632 -27.4434 7.77997 13.6458 -0.047 -4.849 -33.4042 -8.27849 -26.5449 28.3255 -0.9759 2.2888 -2.76723 -37.7611 -53.9859 22.1583 -0.53 10.8316 -10.7435 -4.46735 16.9692 0.786 0.112 2.5817 1.25753e-006 -9.87059e-007 -5.63016e-007 0.3601 -0.878 4.2331 -1.97412e-006 -2.51507e-006 4.14979e-007 1.8127 -1.216 2.2227 1.25753e-006 -9.87059e-007 -5.63016e-007 0.9571 1.114 1.7695 -3.18055e-015 -7.95139e-015 -3.18055e-015 4.1246 0.487 4.1451 1.25753e-006 -9.87059e-007 -5.63016e-007 3.4052 -1.454 2.7682 -1.97412e-006 -2.51507e-006 4.14979e-007 1.4531 -1.795 1.2713 1.25753e-006 -9.87059e-007 -5.63016e-007 5.6954 0.21 2.1184 1.25753e-006 -9.87059e-007 -5.63016e-007 3.9766 -1.54 2.3863 -1.97412e-006 -2.51507e-006 4.14979e-007 1.4042 -1.926 1.125 1.25753e-006 -9.87059e-007 -5.63016e-007 2.0956 0.66 -0.3894 -3.18055e-015 -7.95139e-015 -3.18055e-015 5.0395 -0.09 2.4971 1.25753e-006 -9.87059e-007 -5.63016e-007 3.7921 -1.552 1.4806 -1.97412e-006 -2.51507e-006 4.14979e-007 1.4655 -1.808 0.9609 1.25753e-006 -9.87059e-007 -5.63016e-007 4.9141 -1.269 0.3591 1.25753e-006 -9.87059e-007 -5.63016e-007 3.1477 -1.685 0.8462 -1.97412e-006 -2.51507e-006 4.14979e-007 0.8055 -1.585 0.7955 1.25753e-006 -9.87059e-007 -5.63016e-007 -1.7069 20.075 5.0056 -19.2238 -27.4882 -7.44059 -13.6458 -0.047 -4.849 33.6074 -8.09175 27.2271 -28.3255 -0.9759 2.2888 1.06846 -39.4472 52.668 -22.1583 -0.53 10.8316 10.3484 -3.99475 -17.6022 -0.786 0.112 2.5817 -1.41533e-006 3.27979e-006 1.69928e-007 -0.3601 -0.878 4.2331 8.82781e-031 1.59028e-014 -3.18055e-015 -1.8127 -1.216 2.2227 -1.82502e-006 4.79713e-006 1.1609e-006 -0.9571 1.114 1.7695 2.64834e-031 9.54166e-015 -1.59028e-015 -4.1246 0.487 4.1451 -1.41533e-006 3.27979e-006 1.69928e-007 -3.4052 -1.454 2.7682 -7.95139e-016 1.59028e-014 -3.18055e-015 -1.4531 -1.795 1.2713 -1.82502e-006 4.79713e-006 1.1609e-006 -5.6954 0.21 2.1184 -1.41533e-006 3.27979e-006 1.69928e-007 -3.9766 -1.54 2.3863 -7.95139e-016 1.59028e-014 -3.18055e-015 -1.4042 -1.926 1.125 -1.82502e-006 4.79713e-006 1.1609e-006 -2.0956 0.66 -0.3894 2.64834e-031 9.54166e-015 -1.59028e-015 -5.0395 -0.09 2.4971 -1.41533e-006 3.27979e-006 1.69928e-007 -3.7921 -1.552 1.4806 -7.95139e-016 1.59028e-014 -3.18055e-015 -1.4655 -1.808 0.9609 -1.82502e-006 4.79713e-006 1.1609e-006 -4.9141 -1.269 0.3592 -1.41533e-006 3.27979e-006 1.69928e-007 -3.1477 -1.685 0.8462 -7.95139e-016 1.59028e-014 -3.18055e-015 -0.8055 -1.585 0.7955 -1.82502e-006 4.79713e-006 1.1609e-006 8.367 -8.2066 0.5982 0.943944 -3.20959 3.61823 2.1923 -43.463 -0.4932 8.591 67.39 -6.81397 0.7333 -45.8593 -2.6451 10.1518 47.0839 0.902734 -8.367 -8.2066 0.5982 0.416356 -1.94351 -3.59595 -2.1923 -43.463 -0.4931 -9.74763 68.1307 7.32641 -0.7333 -45.8593 -2.6451 -9.32989 47.6139 -1.57371 
-0.968564 -15.8093 71.8332 117.661 -75.3762 -63.373 0 -1.186 -1.5018 0.382629 -4.2754 -0.148612 0 9.964 0.2134 0.757274 -8.55168 -0.26963 0 13.134 -3.2573 0.757275 -8.55166 -0.26963 0 20.686 -1.6905 -7.81162e-006 10.8431 -2.11883e-005 0 7.238 -0.1237 -3.53875e-007 -60.6913 2.59583e-007 1.7069 20.075 5.0056 30.8378 -39.4428 13.1041 13.6458 -0.047 -4.849 -51.8769 -9.90295 -41.448 28.3255 -0.9759 2.2888 -10.8151 -20.0545 -75.4911 22.1583 -0.53 10.8316 -13.8971 -6.54486 24.8395 0.786 0.112 2.5817 -6.5004e-007 -1.4309e-006 1.45906e-006 0.3601 -0.878 4.2331 8.81169e-007 -1.18261e-006 -8.13741e-007 1.8127 -1.216 2.2227 -2.36522e-006 -1.76234e-006 5.60439e-007 0.9571 1.114 1.7695 -3.18055e-015 1.59028e-015 6.36111e-015 4.1246 0.487 4.1451 -6.5004e-007 -1.4309e-006 1.45906e-006 3.4052 -1.454 2.7682 8.81169e-007 -1.18261e-006 -8.13741e-007 1.4531 -1.795 1.2713 -2.36522e-006 -1.76234e-006 5.60439e-007 5.6954 0.21 2.1184 -6.5004e-007 -1.4309e-006 1.45906e-006 3.9766 -1.54 2.3863 8.81169e-007 -1.18261e-006 -8.13741e-007 1.4042 -1.926 1.125 -2.36522e-006 -1.76234e-006 5.60439e-007 2.0956 0.66 -0.3894 -3.18055e-015 1.59028e-015 6.36111e-015 5.0395 -0.09 2.4971 -6.5004e-007 -1.4309e-006 1.45906e-006 3.7921 -1.552 1.4806 8.81169e-007 -1.18261e-006 -8.13741e-007 1.4655 -1.808 0.9609 -2.36522e-006 -1.76234e-006 5.60439e-007 4.9141 -1.269 0.3591 -6.5004e-007 -1.4309e-006 1.45906e-006 3.1477 -1.685 0.8462 8.81169e-007 -1.18261e-006 -8.13741e-007 0.8055 -1.585 0.7955 -2.36522e-006 -1.76234e-006 5.60439e-007 -1.7069 20.075 5.0056 -30.9458 -39.5431 -12.5471 -13.6458 -0.047 -4.849 52.0189 -9.66583 42.0874 -28.3255 -0.9759 2.2888 10.0584 -21.7193 74.7137 -22.1583 -0.53 10.8316 13.3376 -5.85367 -25.7363 -0.786 0.112 2.5817 -6.36111e-015 1.59028e-015 -1.59028e-015 -0.3601 -0.878 4.2331 4.38259e-006 5.42178e-007 3.53061e-006 -1.8127 -1.216 2.2227 2.72133e-006 2.54758e-006 -2.05879e-006 -0.9571 1.114 1.7695 -3.18055e-015 1.59028e-015 -3.18055e-015 -4.1246 0.487 4.1451 -6.36111e-015 -9.54166e-015 4.77083e-015 -3.4052 -1.454 2.7682 4.38259e-006 5.42178e-007 3.53061e-006 -1.4531 -1.795 1.2713 2.72133e-006 2.54758e-006 -2.05879e-006 -5.6954 0.21 2.1184 -6.36111e-015 -9.54166e-015 4.77083e-015 -3.9766 -1.54 2.3863 4.38259e-006 5.42178e-007 3.53061e-006 -1.4042 -1.926 1.125 2.72133e-006 2.54758e-006 -2.05879e-006 -2.0956 0.66 -0.3894 -3.18055e-015 1.59028e-015 -3.18055e-015 -5.0395 -0.09 2.4971 -6.36111e-015 -9.54166e-015 4.77083e-015 -3.7921 -1.552 1.4806 4.38259e-006 5.42178e-007 3.53061e-006 -1.4655 -1.808 0.9609 2.72133e-006 2.54758e-006 -2.05879e-006 -4.9141 -1.269 0.3592 -6.36111e-015 -9.54166e-015 4.77083e-015 -3.1477 -1.685 0.8462 4.38259e-006 5.42178e-007 3.53061e-006 -0.8055 -1.585 0.7955 2.72133e-006 2.54758e-006 -2.05879e-006 8.367 -8.2066 0.5982 3.51634 -5.45339 6.21538 2.1923 -43.463 -0.4932 145.169 79.845 -140.398 0.7333 -45.8593 -2.6451 11.2513 68.7902 2.58485 -8.367 -8.2066 0.5982 -1.54095 -3.56705 -6.25998 -2.1923 -43.463 -0.4931 -148.18 78.9792 142.348 -0.7333 -45.8593 -2.6451 -9.08633 69.5868 -4.45587 
0.649158 -8.60649 65.2531 -90.3963 -89.7304 89.3514 0 -1.186 -1.5018 0.358742 -3.92174 -0.133888 0 9.964 0.2134 0.71078 -7.84421 -0.243955 0 13.134 -3.2573 0.71078 -7.84425 -0.243955 0 20.686 -1.6905 1.61319e-005 10.433 -4.47785e-006 0 7.238 -0.1237 -6.30934e-007 -58.083 -9.12764e-007 1.7069 20.075 5.0056 28.1713 -36.968 11.9865 13.6458 -0.047 -4.849 -47.6722 -9.70999 -38.1259 28.3255 -0.9759 2.2888 -10.2525 -24.976 -73.0553 22.1583 -0.53 10.8316 -13.2881 -6.09746 23.0774 0.786 0.112 2.5817 3.67115e-006 -2.53857e-006 -3.21311e-006 0.3601 -0.878 4.2331 -1.7105e-006 2.41189e-007 1.69709e-006 1.8127 -1.216 2.2227 1.96065e-006 -2.29738e-006 -1.51602e-006 0.9571 1.114 1.7695 -0 -1.59028e-015 -0 4.1246 0.487 4.1451 3.67115e-006 -2.53857e-006 -3.21311e-006 3.4052 -1.454 2.7682 -1.7105e-006 2.41189e-007 1.69709e-006 1.4531 -1.795 1.2713 1.96065e-006 -2.29738e-006 -1.51602e-006 5.6954 0.21 2.1184 3.67115e-006 -2.53857e-006 -3.21311e-006 3.9766 -1.54 2.3863 -1.7105e-006 2.41189e-007 1.69709e-006 1.4042 -1.926 1.125 1.96065e-006 -2.29738e-006 -1.51602e-006 2.0956 0.66 -0.3894 -0 -1.59028e-015 -0 5.0395 -0.09 2.4971 3.67115e-006 -2.53857e-006 -3.21311e-006 3.7921 -1.552 1.4806 -1.7105e-006 2.41189e-007 1.69709e-006 1.4655 -1.808 0.9609 1.96065e-006 -2.29738e-006 -1.51602e-006 4.9141 -1.269 0.3591 3.67115e-006 -2.53857e-006 -3.21311e-006 3.1477 -1.685 0.8462 -1.7105e-006 2.41189e-007 1.69709e-006 0.8055 -1.585 0.7955 1.96065e-006 -2.29738e-006 -1.51602e-006 -1.7069 20.075 5.0056 -28.2995 -37.054 -11.4833 -13.6458 -0.047 -4.849 47.8301 -9.48061 38.7756 -28.3255 -0.9759 2.2888 9.39293 -26.6707 72.3004 -22.1583 -0.53 10.8316 12.7642 -5.45578 -23.9174 -0.786 0.112 2.5817 1.59028e-015 -7.95139e-016 -0 -0.3601 -0.878 4.2331 9.3021e-007 1.20472e-006 -7.22403e-007 -1.8127 -1.216 2.2227 -3.18055e-015 -1.59028e-015 3.18055e-015 -0.9571 1.114 1.7695 1.59028e-015 -7.95139e-016 3.18055e-015 -4.1246 0.487 4.1451 7.15053e-030 -2.14687e-014 1.90833e-014 -3.4052 -1.454 2.7682 9.3021e-007 1.20472e-006 -7.22403e-007 -1.4531 -1.795 1.2713 1.59028e-015 6.36111e-015 -6.36111e-015 -5.6954 0.21 2.1184 7.15053e-030 -2.14687e-014 1.90833e-014 -3.9766 -1.54 2.3863 9.3021e-007 1.20472e-006 -7.22403e-007 -1.4042 -1.926 1.125 1.59028e-015 6.36111e-015 -6.36111e-015 -2.0956 0.66 -0.3894 1.59028e-015 -7.95139e-016 3.18055e-015 -5.0395 -0.09 2.4971 7.15053e-030 -2.14687e-014 1.90833e-014 -3.7921 -1.552 1.4806 9.3021e-007 1.20472e-006 -7.22403e-007 -1.4655 -1.808 0.9609 1.59028e-015 6.36111e-015 -6.36111e-015 -4.9141 -1.269 0.3592 7.15053e-030 -2.14687e-014 1.90833e-014 -3.1477 -1.685 0.8462 9.3021e-007 1.20472e-006 -7.22403e-007 -0.8055 -1.585 0.7955 1.59028e-015 6.36111e-015 -6.36111e-015 8.367 -8.2066 0.5982 2.93055 -4.932 5.51812 2.1923 -43.463 -0.4932 105.817 84.5021 -101.874 0.7333 -45.8593 -2.6451 11.2689 63.9613 1.95237 -8.367 -8.2066 0.5982 -1.09094 -3.17783 -5.53659 -2.1923 -43.463 -0.4931 -114.706 84.0587 109.811 -0.7333 -45.8593 -2.6451 -9.57713 64.6666 -3.37262 
